<?xml version="1.0" encoding="UTF-8"?>
<svg width="100" height="100" viewBox="0 0 100 100" fill="none" xmlns="http://www.w3.org/2000/svg">
  <path d="M30 40C30 35 35 30 40 30H60C65 30 70 35 70 40V60C70 70 60 80 50 80C40 80 30 70 30 60V40Z" stroke="#333" stroke-width="2" stroke-linecap="round" stroke-linejoin="round"/>
  <path d="M25 35C25 32.5 27.5 30 30 30C32.5 30 35 32.5 35 35C35 37.5 32.5 40 30 40C27.5 40 25 37.5 25 35Z" stroke="#333" stroke-width="2" stroke-linecap="round" stroke-linejoin="round"/>
  <path d="M75 35C75 32.5 72.5 30 70 30C67.5 30 65 32.5 65 35C65 37.5 67.5 40 70 40C72.5 40 75 37.5 75 35Z" stroke="#333" stroke-width="2" stroke-linecap="round" stroke-linejoin="round"/>
  <path d="M40 50C40 52.5 42.5 55 45 55C47.5 55 50 52.5 50 50" stroke="#333" stroke-width="2" stroke-linecap="round" stroke-linejoin="round"/>
  <path d="M60 50C60 52.5 57.5 55 55 55C52.5 55 50 52.5 50 50" stroke="#333" stroke-width="2" stroke-linecap="round" stroke-linejoin="round"/>
  <path d="M45 65H55" stroke="#333" stroke-width="2" stroke-linecap="round" stroke-linejoin="round"/>
</svg>
