<?xml version="1.0" encoding="UTF-8"?>
<svg width="100" height="100" viewBox="0 0 100 100" fill="none" xmlns="http://www.w3.org/2000/svg">
  <path d="M75 60H65V45H30V60H25C22.5 60 20 62.5 20 65C20 67.5 22.5 70 25 70H30" stroke="#333" stroke-width="2" stroke-linecap="round" stroke-linejoin="round"/>
  <path d="M35 70C35 73.866 38.134 77 42 77C45.866 77 49 73.866 49 70C49 66.134 45.866 63 42 63C38.134 63 35 66.134 35 70Z" stroke="#333" stroke-width="2" stroke-linecap="round" stroke-linejoin="round"/>
  <path d="M65 70C65 73.866 68.134 77 72 77C75.866 77 79 73.866 79 70C79 66.134 75.866 63 72 63C68.134 63 65 66.134 65 70Z" stroke="#333" stroke-width="2" stroke-linecap="round" stroke-linejoin="round"/>
  <path d="M65 45L70 30H80L75 60" stroke="#333" stroke-width="2" stroke-linecap="round" stroke-linejoin="round"/>
  <path d="M30 45H50" stroke="#333" stroke-width="2" stroke-linecap="round" stroke-linejoin="round"/>
  <path d="M35 35H45" stroke="#333" stroke-width="2" stroke-linecap="round" stroke-linejoin="round"/>
</svg>
