<?xml version="1.0" encoding="UTF-8"?>
<svg width="100" height="100" viewBox="0 0 100 100" fill="none" xmlns="http://www.w3.org/2000/svg">
  <path d="M50 15C47.5 15 45 16.25 45 20C45 23.75 47.5 25 50 25C52.5 25 55 23.75 55 20C55 16.25 52.5 15 50 15Z" stroke="#333" stroke-width="2" stroke-linecap="round" stroke-linejoin="round"/>
  <path d="M50 25V85" stroke="#333" stroke-width="2" stroke-linecap="round" stroke-linejoin="round"/>
  <path d="M40 25C37.5 25 35 26.25 35 30C35 33.75 37.5 35 40 35C42.5 35 45 33.75 45 30C45 26.25 42.5 25 40 25Z" stroke="#333" stroke-width="2" stroke-linecap="round" stroke-linejoin="round"/>
  <path d="M60 25C57.5 25 55 26.25 55 30C55 33.75 57.5 35 60 35C62.5 35 65 33.75 65 30C65 26.25 62.5 25 60 25Z" stroke="#333" stroke-width="2" stroke-linecap="round" stroke-linejoin="round"/>
  <path d="M30 35C27.5 35 25 36.25 25 40C25 43.75 27.5 45 30 45C32.5 45 35 43.75 35 40C35 36.25 32.5 35 30 35Z" stroke="#333" stroke-width="2" stroke-linecap="round" stroke-linejoin="round"/>
  <path d="M70 35C67.5 35 65 36.25 65 40C65 43.75 67.5 45 70 45C72.5 45 75 43.75 75 40C75 36.25 72.5 35 70 35Z" stroke="#333" stroke-width="2" stroke-linecap="round" stroke-linejoin="round"/>
</svg>
